<svg id="그룹_39" data-name="그룹 39" xmlns="http://www.w3.org/2000/svg" xmlns:xlink="http://www.w3.org/1999/xlink" width="120.789" height="35.581" viewBox="0 0 120.789 35.581">
  <defs>
    <clipPath id="clip-path">
      <rect id="사각형_61" data-name="사각형 61" width="120.789" height="35.581" fill="none"/>
    </clipPath>
  </defs>
  <g id="그룹_10" data-name="그룹 10" clip-path="url(#clip-path)">
    <path id="패스_4" data-name="패스 4" d="M115.432,65.711H111.1l.011.007h4.325s0,0,0-.007" transform="translate(-88.639 -52.427)" fill="#ba0015"/>
    <path id="패스_5" data-name="패스 5" d="M44.654,30.822l-.048,0c-.228-.015-.456-.024-.688-.024h-.03a10.8,10.8,0,0,0-8.66,4.306l-.017.022a6.111,6.111,0,0,0-.53,1.467,11.144,11.144,0,0,0-.331,2.816,9.233,9.233,0,0,0,.077,1.424c0,.027.008.055.011.081a4.17,4.17,0,0,0,.421,1.458c.034.067.072.129.109.189.006.007.01.017.016.025.019.03.041.057.062.085s.059.085.092.126a1.2,1.2,0,0,0,.221.2,2.232,2.232,0,0,0,3-.115c1.3-1.03,1.7-2.911,2.177-3.7a6.228,6.228,0,0,1,1.7-1.875,4.463,4.463,0,0,1,2.482-.744,11.691,11.691,0,0,1,3.953.728h5.29a11.012,11.012,0,0,0-9.3-6.471" transform="translate(-27.404 -24.569)" fill="#ba0015"/>
    <path id="패스_6" data-name="패스 6" d="M36.209,43.074a2.281,2.281,0,0,1-.345-.026,2.417,2.417,0,0,1-1.2-.536,1.309,1.309,0,0,1-.239-.22c-.025-.031-.047-.061-.069-.092l-.029-.041c-.029-.038-.048-.064-.067-.092l-.012-.019c-.046-.073-.086-.139-.122-.211a4.266,4.266,0,0,1-.436-1.509l0-.028c0-.018-.005-.037-.007-.055A9.429,9.429,0,0,1,33.6,38.8a11.212,11.212,0,0,1,.336-2.851,6.034,6.034,0,0,1,.549-1.51l.025-.033a10.891,10.891,0,0,1,8.78-4.365h.02c.224,0,.452.007.707.023l.036,0A11.144,11.144,0,0,1,53.5,36.633a.152.152,0,0,1-.138.214H48.07a.152.152,0,0,1-.055-.01,11.531,11.531,0,0,0-3.9-.718h-.066a4.318,4.318,0,0,0-2.325.716,6.054,6.054,0,0,0-1.66,1.831,7.164,7.164,0,0,0-.417.912,6.624,6.624,0,0,1-1.788,2.818,2.424,2.424,0,0,1-1.651.679m7.074-12.727a10.587,10.587,0,0,0-8.531,4.244l-.019.025a6.264,6.264,0,0,0-.5,1.413,10.916,10.916,0,0,0-.326,2.776,9.147,9.147,0,0,0,.075,1.4l.012.083a3.975,3.975,0,0,0,.4,1.406c.033.066.069.124.1.18l.013.02c.016.024.032.045.047.065l.044.06c.018.025.035.05.055.074a1.034,1.034,0,0,0,.193.176,2.124,2.124,0,0,0,1.06.474,2.018,2.018,0,0,0,.3.023,2.133,2.133,0,0,0,1.438-.593l.016-.015a6.369,6.369,0,0,0,1.7-2.7,7.338,7.338,0,0,1,.438-.954,6.349,6.349,0,0,1,1.743-1.92,4.643,4.643,0,0,1,2.5-.773h.072a11.85,11.85,0,0,1,3.978.728h5.024a10.833,10.833,0,0,0-9.077-6.168l-.022,0-.023,0c-.251-.016-.473-.024-.682-.024Z" transform="translate(-26.806 -23.97)" fill="#c38b00"/>
    <path id="패스_7" data-name="패스 7" d="M115.476,65.744h-4.325a7.541,7.541,0,0,1,1.092.752h3.494q-.117-.381-.261-.752" transform="translate(-88.681 -52.454)" fill="#ba0015"/>
    <path id="패스_8" data-name="패스 8" d="M115.476,65.744h-4.325a7.541,7.541,0,0,1,1.092.752h3.494q-.117-.381-.261-.752" transform="translate(-88.681 -52.454)" fill="#ba0015"/>
    <path id="패스_9" data-name="패스 9" d="M115.139,66.05h-3.494a.151.151,0,0,1-.1-.035,7.428,7.428,0,0,0-1.071-.737.152.152,0,0,1,.075-.283h4.325a.152.152,0,0,1,.142.1c.1.257.188.514.264.763a.152.152,0,0,1-.145.2m-3.439-.3h3.232c-.049-.148-.1-.3-.158-.449h-3.684a7.567,7.567,0,0,1,.611.449" transform="translate(-88.083 -51.855)" fill="#c38b00"/>
    <path id="패스_10" data-name="패스 10" d="M122.565,72.219h-3.049a6.6,6.6,0,0,1,.612.753h2.591c-.044-.254-.093-.506-.154-.753" transform="translate(-95.355 -57.62)" fill="#ba0015"/>
    <path id="패스_11" data-name="패스 11" d="M122.565,72.219h-3.049a6.6,6.6,0,0,1,.612.753h2.591c-.044-.254-.093-.506-.154-.753" transform="translate(-95.355 -57.62)" fill="#ba0015"/>
    <path id="패스_12" data-name="패스 12" d="M122.12,72.526h-2.591a.152.152,0,0,1-.124-.064,6.348,6.348,0,0,0-.6-.736.152.152,0,0,1,.11-.256h3.049a.152.152,0,0,1,.147.116c.056.23.107.48.156.764a.152.152,0,0,1-.149.177m-2.513-.3h2.331c-.03-.161-.06-.309-.093-.45h-2.589c.12.141.236.29.351.45" transform="translate(-94.757 -57.021)" fill="#c38b00"/>
    <path id="패스_13" data-name="패스 13" d="M124.671,79.467h2.017c-.013-.253-.037-.5-.067-.753H124.3a6.661,6.661,0,0,1,.368.753" transform="translate(-99.175 -62.802)" fill="#ba0015"/>
    <path id="패스_14" data-name="패스 14" d="M124.671,79.467h2.017c-.013-.253-.037-.5-.067-.753H124.3a6.661,6.661,0,0,1,.368.753" transform="translate(-99.175 -62.802)" fill="#ba0015"/>
    <path id="패스_15" data-name="패스 15" d="M126.089,79.02h-2.017a.152.152,0,0,1-.14-.095,6.484,6.484,0,0,0-.359-.736.152.152,0,0,1,.132-.226h2.317a.152.152,0,0,1,.151.134c.034.289.056.531.068.764a.151.151,0,0,1-.151.159m-1.916-.3h1.754c-.01-.14-.023-.288-.041-.45h-1.928c.081.155.152.3.214.45" transform="translate(-98.576 -62.203)" fill="#c38b00"/>
    <path id="패스_16" data-name="패스 16" d="M128.893,85.208h-1.844c.068.245.131.493.182.746h.028a.024.024,0,0,1,0,.008h1.606c.017-.245.027-.49.027-.738Z" transform="translate(-101.366 -67.983)" fill="#ba0015"/>
    <path id="패스_17" data-name="패스 17" d="M128.893,85.208h-1.844c.068.245.131.493.182.746h.028a.024.024,0,0,1,0,.008h1.606c.017-.245.027-.49.027-.738Z" transform="translate(-101.366 -67.983)" fill="#ba0015"/>
    <path id="패스_18" data-name="패스 18" d="M128.268,85.515h-1.606a.2.2,0,0,1-.178-.13c-.045-.223-.1-.456-.179-.735a.152.152,0,0,1,.146-.192H128.3a.152.152,0,0,1,.152.152c0,.248-.009.493-.028.764a.151.151,0,0,1-.151.141m-1.51-.3h1.368c.009-.158.015-.307.017-.45h-1.494c.043.161.078.309.109.45" transform="translate(-100.767 -67.384)" fill="#c38b00"/>
    <path id="패스_19" data-name="패스 19" d="M128.467,92.447h.028v.012h1.285q.07-.371.114-.752H128.4c.032.243.056.49.065.74" transform="translate(-102.445 -73.168)" fill="#ba0015"/>
    <path id="패스_20" data-name="패스 20" d="M128.467,92.447h.028v.012h1.285q.07-.371.114-.752H128.4c.032.243.056.49.065.74" transform="translate(-102.445 -73.168)" fill="#ba0015"/>
    <path id="패스_21" data-name="패스 21" d="M129.182,92.012H127.9a.193.193,0,0,1-.179-.158c-.008-.22-.029-.458-.064-.726a.152.152,0,0,1,.15-.172H129.3a.152.152,0,0,1,.151.169c-.031.261-.07.518-.116.763a.152.152,0,0,1-.149.124m-1.168-.3h1.041c.026-.146.049-.3.069-.449h-1.149c.018.159.031.307.039.449" transform="translate(-101.846 -72.57)" fill="#c38b00"/>
    <path id="패스_22" data-name="패스 22" d="M128.645,98.935h.028a.069.069,0,0,0,0,.015h.971c.08-.246.149-.5.21-.754h-1.178a7.122,7.122,0,0,1-.029.739" transform="translate(-102.639 -78.345)" fill="#ba0015"/>
    <path id="패스_23" data-name="패스 23" d="M128.645,98.935h.028a.069.069,0,0,0,0,.015h.971c.08-.246.149-.5.21-.754h-1.178a7.122,7.122,0,0,1-.029.739" transform="translate(-102.639 -78.345)" fill="#ba0015"/>
    <path id="패스_24" data-name="패스 24" d="M129.043,98.5h-.971a.151.151,0,0,1-.087-.028.152.152,0,0,1-.089-.153,6.984,6.984,0,0,0,.028-.723.152.152,0,0,1,.152-.154h1.178a.152.152,0,0,1,.147.188c-.068.279-.137.529-.213.765a.152.152,0,0,1-.144.105m-.833-.3h.722c.044-.143.086-.292.127-.451h-.832q0,.229-.018.451" transform="translate(-102.04 -77.745)" fill="#c38b00"/>
    <path id="패스_25" data-name="패스 25" d="M127.649,105.427h.025c0,.007,0,.013-.005.02h.662c.115-.246.221-.5.318-.753h-.866c-.037.252-.082.5-.134.732" transform="translate(-101.844 -83.53)" fill="#ba0015"/>
    <path id="패스_26" data-name="패스 26" d="M127.649,105.427h.025c0,.007,0,.013-.005.02h.662c.115-.246.221-.5.318-.753h-.866c-.037.252-.082.5-.134.732" transform="translate(-101.844 -83.53)" fill="#ba0015"/>
    <path id="패스_27" data-name="패스 27" d="M127.733,105h-.662a.152.152,0,0,1-.117-.055.159.159,0,0,1-.022-.022.151.151,0,0,1-.03-.128c.051-.229.1-.472.132-.721a.152.152,0,0,1,.15-.13h.866a.152.152,0,0,1,.142.206c-.1.271-.212.528-.323.763a.151.151,0,0,1-.137.087m-.5-.3h.4c.065-.143.13-.293.193-.449h-.513c-.024.153-.051.3-.081.449" transform="translate(-101.246 -82.932)" fill="#c38b00"/>
    <path id="패스_28" data-name="패스 28" d="M123.634,112.948c.025-.029.047-.062.072-.092-.028.058-.045.091-.045.091a10.991,10.991,0,0,0,1.181-1.759H124.3a10.04,10.04,0,0,1-.663,1.76" transform="translate(-98.641 -88.711)" fill="#ba0015"/>
    <path id="패스_29" data-name="패스 29" d="M123.634,112.948c.025-.029.047-.062.072-.092-.028.058-.045.091-.045.091a10.991,10.991,0,0,0,1.181-1.759H124.3a10.04,10.04,0,0,1-.663,1.76" transform="translate(-98.641 -88.711)" fill="#ba0015"/>
    <path id="패스_30" data-name="패스 30" d="M123.035,112.5a.152.152,0,0,1-.134-.222,9.972,9.972,0,0,0,.652-1.73.152.152,0,0,1,.146-.111h.545a.151.151,0,0,1,.133.224,11.2,11.2,0,0,1-1.2,1.783.146.146,0,0,1-.126.055h-.018m.777-1.76c-.062.213-.126.411-.189.59q.19-.289.362-.59Z" transform="translate(-98.042 -88.113)" fill="#c38b00"/>
    <path id="패스_31" data-name="패스 31" d="M46.919,64.763a10.81,10.81,0,0,1-8.663,4.3,11.014,11.014,0,0,1-8.507-18.01,10.4,10.4,0,0,0-1.039,4.555c0,4.831,3.647,7.577,8.748,7.684a4.453,4.453,0,0,0,2.482-.745,6.214,6.214,0,0,0,1.7-1.874c.476-.785.876-2.667,2.177-3.7a2.254,2.254,0,0,1,1.871-.616,2.147,2.147,0,0,1,1.335.7,3.762,3.762,0,0,1,.724,1.965,11.975,11.975,0,0,1-.286,4.241,4.479,4.479,0,0,1-.529,1.468Z" transform="translate(-21.735 -40.735)" fill="#001976"/>
    <path id="패스_32" data-name="패스 32" d="M37.658,68.618A11.165,11.165,0,0,1,29.034,50.36a.152.152,0,0,1,.251.167,10.335,10.335,0,0,0-1.022,4.481c0,4.539,3.3,7.425,8.6,7.537h.065a4.309,4.309,0,0,0,2.325-.717A6.04,6.04,0,0,0,40.913,60a7.174,7.174,0,0,0,.417-.913,6.613,6.613,0,0,1,1.787-2.817,2.425,2.425,0,0,1,1.65-.679,2.436,2.436,0,0,1,1.775.781,3.911,3.911,0,0,1,.757,2.044,12.16,12.16,0,0,1-.29,4.3l-.043.172a3.916,3.916,0,0,1-.512,1.349l-.007.012a10.9,10.9,0,0,1-8.791,4.374M28.527,51.569a10.861,10.861,0,0,0,9.131,16.746,10.6,10.6,0,0,0,8.54-4.241l.008-.013a3.721,3.721,0,0,0,.467-1.25l.044-.175A11.841,11.841,0,0,0,47,58.454a3.639,3.639,0,0,0-.682-1.881,2.134,2.134,0,0,0-1.549-.679,2.133,2.133,0,0,0-1.438.593l-.017.015a6.358,6.358,0,0,0-1.7,2.7,7.345,7.345,0,0,1-.438.955,6.334,6.334,0,0,1-1.743,1.919,4.636,4.636,0,0,1-2.5.774h-.072c-5.488-.116-8.9-3.118-8.9-7.836a9.94,9.94,0,0,1,.567-3.443" transform="translate(-21.137 -40.136)" fill="#c38b00"/>
    <path id="패스_33" data-name="패스 33" d="M99.068,109.179l.888-.552-.2-1.047.826.662.915-.461-.386.973.751.727-1.016-.082-.514.927-.22-.985Z" transform="translate(-79.041 -85.833)" fill="#fff"/>
    <path id="패스_34" data-name="패스 34" d="M86.08,118.6l.724-.308-.026-.8.537.586.731-.235-.4.679.473.625-.745-.177-.486.629-.053-.757Z" transform="translate(-68.678 -93.742)" fill="#fff"/>
    <path id="패스_35" data-name="패스 35" d="M73.855,122.226l.631-.194.046-.669.4.532.631-.132-.39.531.339.562-.6-.21-.459.484.021-.639Z" transform="translate(-58.925 -96.829)" fill="#fff"/>
    <path id="패스_36" data-name="패스 36" d="M62.543,120.665l.583-.036.181-.57.234.545.574.015-.449.379.181.56-.483-.31-.5.323.154-.549Z" transform="translate(-49.9 -95.788)" fill="#fff"/>
    <path id="패스_37" data-name="패스 37" d="M156.561,35.489V34.081h3.021V32.937h1.784v1.144H164.4v1.408Zm7.065,3.29A2.81,2.81,0,0,1,163.371,40a2.644,2.644,0,0,1-.683.893,3.054,3.054,0,0,1-1.007.564,3.56,3.56,0,0,1-1.207.218,3.514,3.514,0,0,1-1.159-.186,2.769,2.769,0,0,1-1-.565,2.441,2.441,0,0,1-.7-.907,2.717,2.717,0,0,1-.282-1.238,2.788,2.788,0,0,1,.253-1.221,2.653,2.653,0,0,1,.683-.91,3.048,3.048,0,0,1,1-.579,4.285,4.285,0,0,1,1.2-.219,3.76,3.76,0,0,1,1.178.188,3.979,3.979,0,0,1,.994.564,2.889,2.889,0,0,1,.981,2.177m3.867,8.488H158.82V42.882h1.774v2.725h6.9Zm-5.651-8.488a1.452,1.452,0,0,0-.373-1.035,1.4,1.4,0,0,0-1-.359,1.267,1.267,0,0,0-1.368,1.394,1.268,1.268,0,0,0,.372.986,1.318,1.318,0,0,0,1,.377,1.288,1.288,0,0,0,1.368-1.363m5.548-.33v4.386h-1.771v-9.9h1.771v3.852h2.069v1.66Z" transform="translate(-124.912 -26.279)" fill="#2a2c2f"/>
    <path id="패스_38" data-name="패스 38" d="M230.721,34.22h6.532V43.3h-6.532Zm4.748,1.66h-2.961V41.63h2.961Zm5.67,11.779h-1.77V32.937h1.77Z" transform="translate(-184.08 -26.279)" fill="#2a2c2f"/>
    <path id="패스_39" data-name="패스 39" d="M305.734,40.051h-3.674v.955h5.725v1.675h-13.24V41.006h5.727v-.955h-3.633V35.022h8.915v1.662h-7.127v1.707h7.305Zm-.862,6.28a3.025,3.025,0,0,1-.283,1.317,3.25,3.25,0,0,1-.776.986,3.887,3.887,0,0,1-1.172.626,5.042,5.042,0,0,1-1.49.221,5.362,5.362,0,0,1-1.471-.206,3.738,3.738,0,0,1-1.177-.626,3.051,3.051,0,0,1-.776-.986,2.983,2.983,0,0,1-.281-1.332,2.952,2.952,0,0,1,.281-1.282,2.913,2.913,0,0,1,.776-1,3.8,3.8,0,0,1,1.177-.674,4.452,4.452,0,0,1,1.471-.234,5.718,5.718,0,0,1,1.49.2,3.879,3.879,0,0,1,1.172.627,3.123,3.123,0,0,1,.776,1,3.341,3.341,0,0,1,.283,1.362m-1.786,0a1.766,1.766,0,0,0-.147-.69,1.655,1.655,0,0,0-.433-.469,2.008,2.008,0,0,0-.609-.279,3.692,3.692,0,0,0-.728-.08,3.372,3.372,0,0,0-.732.08,2.3,2.3,0,0,0-.623.266,1.222,1.222,0,0,0-.419.469,1.365,1.365,0,0,0-.162.7,1.111,1.111,0,0,0,.162.642,1.457,1.457,0,0,0,.432.47,1.965,1.965,0,0,0,.627.285,3.505,3.505,0,0,0,.714.077,2.826,2.826,0,0,0,.728-.1,1.961,1.961,0,0,0,.609-.282,1.627,1.627,0,0,0,.433-.469,1.356,1.356,0,0,0,.147-.628" transform="translate(-235.002 -27.942)" fill="#2a2c2f"/>
    <path id="패스_40" data-name="패스 40" d="M369.974,33.516h5.536v6.5h-5.536Zm3.869,1.661h-2.216v3.178h2.216Zm6.669,9.241a3.265,3.265,0,0,1-.3,1.392,4.045,4.045,0,0,1-.805,1.082,4.536,4.536,0,0,1-1.22.686,4.646,4.646,0,0,1-1.49.239,4.329,4.329,0,0,1-1.457-.239,3.549,3.549,0,0,1-1.192-.672,3.03,3.03,0,0,1-.819-1.08,3.064,3.064,0,0,1-.3-1.409,3.292,3.292,0,0,1,.3-1.442,3.052,3.052,0,0,1,.819-1.08,3.65,3.65,0,0,1,1.192-.675,4.432,4.432,0,0,1,1.457-.234,4.757,4.757,0,0,1,1.49.234,4.816,4.816,0,0,1,1.206.69,3.816,3.816,0,0,1,.819,1.081,3.524,3.524,0,0,1,.3,1.427m-1.787,0a2,2,0,0,0-.147-.737,2.24,2.24,0,0,0-.432-.549,2.558,2.558,0,0,0-.642-.345,2.689,2.689,0,0,0-.787-.125,2.458,2.458,0,0,0-.775.125,2.3,2.3,0,0,0-.641.345,1.423,1.423,0,0,0-.432.564,1.526,1.526,0,0,0-.161.721,1.414,1.414,0,0,0,.161.719,1.6,1.6,0,0,0,.449.55,1.971,1.971,0,0,0,.64.343,2.966,2.966,0,0,0,.758.11,3.29,3.29,0,0,0,.787-.11,2.421,2.421,0,0,0,.642-.343,2.006,2.006,0,0,0,.432-.55,1.811,1.811,0,0,0,.147-.719m-.462-4.137H376.6V33.093h1.667v2.774h1.116v-2.93h1.653v7.706h-1.653V37.526h-1.116Z" transform="translate(-295.182 -26.279)" fill="#2a2c2f"/>
    <path id="패스_41" data-name="패스 41" d="M442.708,42.288c-.212.2-.39.406-.567.595-.2.218-.389.423-.58.625a11.6,11.6,0,0,1-2.324-3.491,10.216,10.216,0,0,1-.952,1.863,13.1,13.1,0,0,1-1.355,1.754,5.608,5.608,0,0,1-.58-.612,7.254,7.254,0,0,1-.563-.61,11.059,11.059,0,0,0,1.325-1.675,10.645,10.645,0,0,0,.8-1.647,9.842,9.842,0,0,0,.4-1.612,14.213,14.213,0,0,0,.1-1.6h-2.082v-1.66h5.816v1.66h-2.083a11.344,11.344,0,0,0,.1,1.584,6.436,6.436,0,0,0,.373,1.564,6.517,6.517,0,0,0,.8,1.6,8.657,8.657,0,0,0,1.355,1.661m2.112,4.9h-1.728v-14.1h1.728V38.28h1.13V32.938h1.726V47.66h-1.726V39.94h-1.13Z" transform="translate(-347.691 -26.279)" fill="#2a2c2f"/>
    <path id="패스_42" data-name="패스 42" d="M511.1,39.091a27.187,27.187,0,0,0,2.736-.124c.941-.077,1.935-.2,2.978-.375l.146,1.645a48.6,48.6,0,0,1-7.647.516V33.517h6.684v1.661h-4.9Zm8.509,8.178H510.8V42.225h1.784v3.384h7.022Zm-.1-8.834v4.058h-1.771V32.938H519.5V36.76h2.081v1.675Z" transform="translate(-406.351 -26.279)" fill="#2a2c2f"/>
    <path id="패스_43" data-name="패스 43" d="M167.651,122.817h.762v1.526l1.427-1.526h1l-1.519,1.521,1.6,2.18h-1l-1.14-1.616-.371.377v1.239h-.762Z" transform="translate(-133.76 -97.989)" fill="#53504e"/>
    <path id="패스_44" data-name="패스 44" d="M188.561,129.643a1.281,1.281,0,0,1-1.052.429,1.268,1.268,0,0,1-1.051-.429,1.689,1.689,0,0,1,0-2.055,1.488,1.488,0,0,1,2.1,0,1.7,1.7,0,0,1,0,2.055m-.574-.4a1.278,1.278,0,0,0,0-1.266.63.63,0,0,0-.963,0,1.258,1.258,0,0,0,0,1.266.63.63,0,0,0,.963,0" transform="translate(-148.486 -101.449)" fill="#53504e"/>
    <path id="패스_45" data-name="패스 45" d="M205.233,127.269c.01,0,.03,0,.061,0v.734c-.044,0-.084-.009-.12-.01s-.064,0-.084,0a.592.592,0,0,0-.58.283,1.054,1.054,0,0,0-.083.486v1.308H203.7v-2.736h.685v.477a1.54,1.54,0,0,1,.287-.374.787.787,0,0,1,.524-.168h.033" transform="translate(-162.524 -101.54)" fill="#53504e"/>
    <path id="패스_46" data-name="패스 46" d="M215.855,127.359a1.139,1.139,0,0,1,.473.405,1.4,1.4,0,0,1,.222.568,3.978,3.978,0,0,1,.023.544h-2a.653.653,0,0,0,.286.575.712.712,0,0,0,.4.105.544.544,0,0,0,.543-.316h.731a.872.872,0,0,1-.265.5,1.324,1.324,0,0,1-1.03.4,1.483,1.483,0,0,1-.961-.337,1.319,1.319,0,0,1-.42-1.1,1.479,1.479,0,0,1,.376-1.092,1.324,1.324,0,0,1,.979-.378,1.584,1.584,0,0,1,.644.125m-1.07.619a.759.759,0,0,0-.191.424h1.234a.591.591,0,0,0-.192-.431.618.618,0,0,0-.422-.149.574.574,0,0,0-.429.157" transform="translate(-170.625 -101.513)" fill="#53504e"/>
    <path id="패스_47" data-name="패스 47" d="M230.7,128.4a1.062,1.062,0,0,0,.284-.062.21.21,0,0,0,.155-.2.244.244,0,0,0-.117-.233.748.748,0,0,0-.35-.065.463.463,0,0,0-.365.126.526.526,0,0,0-.1.251h-.691a1.025,1.025,0,0,1,.2-.591,1.178,1.178,0,0,1,.979-.359,1.729,1.729,0,0,1,.8.179.681.681,0,0,1,.351.671v1.257c0,.087,0,.192.007.316a.37.37,0,0,0,.041.191.264.264,0,0,0,.107.083v.1h-.782a1.161,1.161,0,0,1-.043-.156c-.006-.048-.017-.1-.021-.163a1.637,1.637,0,0,1-.342.273,1.057,1.057,0,0,1-.526.133.918.918,0,0,1-.621-.212.762.762,0,0,1-.241-.6.781.781,0,0,1,.392-.731,1.7,1.7,0,0,1,.631-.174Zm.436.336a.884.884,0,0,1-.138.069,1.118,1.118,0,0,1-.19.047l-.164.03a1.139,1.139,0,0,0-.329.1.37.37,0,0,0-.067.569.4.4,0,0,0,.252.081.738.738,0,0,0,.433-.135.574.574,0,0,0,.2-.494Z" transform="translate(-183.051 -101.54)" fill="#53504e"/>
    <path id="패스_48" data-name="패스 48" d="M254.39,122.817h.788v2.273a1.282,1.282,0,0,0,.09.559.756.756,0,0,0,1.221,0,1.347,1.347,0,0,0,.087-.559v-2.273h.788v2.275a1.925,1.925,0,0,1-.184.919,1.706,1.706,0,0,1-2.606,0,1.91,1.91,0,0,1-.185-.919Z" transform="translate(-202.964 -97.989)" fill="#53504e"/>
    <path id="패스_49" data-name="패스 49" d="M273.892,124.948a.734.734,0,0,0,.141.379.815.815,0,0,0,.657.23,1.377,1.377,0,0,0,.455-.061.43.43,0,0,0,.329-.428.319.319,0,0,0-.16-.286,1.737,1.737,0,0,0-.514-.172l-.4-.089a2.452,2.452,0,0,1-.811-.285.893.893,0,0,1-.374-.8,1.072,1.072,0,0,1,.365-.826,1.57,1.57,0,0,1,1.076-.329,1.655,1.655,0,0,1,1.013.311,1.1,1.1,0,0,1,.436.9h-.741a.528.528,0,0,0-.3-.474,1.033,1.033,0,0,0-.462-.092.879.879,0,0,0-.489.118.381.381,0,0,0-.182.338.315.315,0,0,0,.182.3,2.151,2.151,0,0,0,.489.154l.651.152a1.681,1.681,0,0,1,.641.27.91.91,0,0,1,.332.755,1.061,1.061,0,0,1-.393.843,1.662,1.662,0,0,1-1.11.336,1.822,1.822,0,0,1-1.15-.332,1.1,1.1,0,0,1-.419-.908Z" transform="translate(-217.933 -97.561)" fill="#53504e"/>
    <path id="패스_50" data-name="패스 50" d="M299.73,122.816h.876l1.31,3.7h-.841l-.245-.76h-1.362l-.25.76h-.809Zm-.052,2.3h.947l-.467-1.455Z" transform="translate(-238.084 -97.988)" fill="#53504e"/>
    <rect id="사각형_58" data-name="사각형 58" width="0.714" height="3.701" transform="translate(64.516 24.828)" fill="#53504e"/>
    <rect id="사각형_59" data-name="사각형 59" width="0.718" height="3.701" transform="translate(66.202 24.828)" fill="#53504e"/>
    <path id="패스_51" data-name="패스 51" d="M336.537,123.367h-.723v-.66h.723Zm-.723.328h.722v2.736h-.722Z" transform="translate(-267.928 -97.901)" fill="#53504e"/>
    <path id="패스_52" data-name="패스 52" d="M344.446,128.4a1.013,1.013,0,0,0,.283-.062.211.211,0,0,0,.155-.2.239.239,0,0,0-.117-.233.737.737,0,0,0-.35-.065.45.45,0,0,0-.361.126.576.576,0,0,0-.1.251h-.691a1.046,1.046,0,0,1,.205-.591,1.169,1.169,0,0,1,.979-.359,1.742,1.742,0,0,1,.8.179.687.687,0,0,1,.349.671v1.257c0,.087,0,.192.007.316a.37.37,0,0,0,.043.191.269.269,0,0,0,.1.083v.1h-.777a.716.716,0,0,1-.047-.156c-.007-.048-.014-.1-.021-.163a1.483,1.483,0,0,1-.341.273,1.053,1.053,0,0,1-.526.133.906.906,0,0,1-.618-.212.75.75,0,0,1-.245-.6.781.781,0,0,1,.392-.731,1.735,1.735,0,0,1,.634-.174Zm.438.336a1.071,1.071,0,0,1-.141.069,1.129,1.129,0,0,1-.189.047l-.165.03a1.161,1.161,0,0,0-.329.1.325.325,0,0,0-.168.3.321.321,0,0,0,.1.265.393.393,0,0,0,.25.081.739.739,0,0,0,.433-.135.574.574,0,0,0,.207-.494Z" transform="translate(-273.8 -101.54)" fill="#53504e"/>
    <path id="패스_53" data-name="패스 53" d="M361.746,127.49a.9.9,0,0,1,.269.736v1.843h-.732V128.4a.712.712,0,0,0-.06-.33.4.4,0,0,0-.4-.211.5.5,0,0,0-.5.308,1.148,1.148,0,0,0-.07.419v1.48h-.714v-2.731h.693v.4a1.242,1.242,0,0,1,.259-.3.913.913,0,0,1,.559-.165,1.036,1.036,0,0,1,.691.223" transform="translate(-286.861 -101.539)" fill="#53504e"/>
    <path id="패스_54" data-name="패스 54" d="M377.36,128.314a.615.615,0,0,0-.1-.276.429.429,0,0,0-.372-.166.5.5,0,0,0-.5.36,1.47,1.47,0,0,0-.071.5,1.345,1.345,0,0,0,.071.485.48.48,0,0,0,.486.341.424.424,0,0,0,.356-.133.663.663,0,0,0,.128-.353h.735a1.226,1.226,0,0,1-.239.617,1.147,1.147,0,0,1-1,.471,1.172,1.172,0,0,1-.972-.393,1.858,1.858,0,0,1,.033-2.111,1.2,1.2,0,0,1,.949-.392,1.421,1.421,0,0,1,.844.231,1.07,1.07,0,0,1,.389.814Z" transform="translate(-299.644 -101.54)" fill="#53504e"/>
    <path id="패스_55" data-name="패스 55" d="M392.694,127.359a1.134,1.134,0,0,1,.472.405,1.382,1.382,0,0,1,.218.568,3.306,3.306,0,0,1,.023.544h-1.995a.654.654,0,0,0,.289.575.694.694,0,0,0,.392.105.6.6,0,0,0,.4-.126.655.655,0,0,0,.148-.189h.732a.892.892,0,0,1-.266.5,1.334,1.334,0,0,1-1.033.4,1.5,1.5,0,0,1-.962-.337,1.331,1.331,0,0,1-.419-1.1,1.483,1.483,0,0,1,.379-1.092,1.323,1.323,0,0,1,.979-.378,1.594,1.594,0,0,1,.645.125m-1.073.619a.76.76,0,0,0-.192.424h1.234a.592.592,0,0,0-.191-.431.619.619,0,0,0-.423-.149.573.573,0,0,0-.428.157" transform="translate(-311.711 -101.513)" fill="#53504e"/>
    <path id="패스_56" data-name="패스 56" d="M415.822,122.84h2.637v.65h-1.87v.853h1.64v.644h-1.64v1.549h-.767Z" transform="translate(-331.762 -98.007)" fill="#53504e"/>
    <path id="패스_57" data-name="패스 57" d="M433.961,129.643a1.5,1.5,0,0,1-2.1,0,1.691,1.691,0,0,1,0-2.055,1.488,1.488,0,0,1,2.1,0,1.694,1.694,0,0,1,0,2.055m-.571-.4a1.275,1.275,0,0,0,0-1.266.633.633,0,0,0-.966,0,1.262,1.262,0,0,0,0,1.266.633.633,0,0,0,.966,0" transform="translate(-344.278 -101.449)" fill="#53504e"/>
    <path id="패스_58" data-name="패스 58" d="M449.788,127.592v1.65a.877.877,0,0,0,.057.352.378.378,0,0,0,.381.209.5.5,0,0,0,.5-.3,1.053,1.053,0,0,0,.07-.423v-1.489h.725v2.736h-.694v-.384a.811.811,0,0,0-.05.075.665.665,0,0,1-.1.109.913.913,0,0,1-.327.207,1.076,1.076,0,0,1-.363.057.827.827,0,0,1-.819-.44,1.707,1.707,0,0,1-.117-.71v-1.65Z" transform="translate(-358.277 -101.799)" fill="#53504e"/>
    <path id="패스_59" data-name="패스 59" d="M468.213,127.49a.912.912,0,0,1,.267.736v1.843h-.734V128.4a.735.735,0,0,0-.057-.33.4.4,0,0,0-.4-.211.5.5,0,0,0-.5.308,1.067,1.067,0,0,0-.071.419v1.48h-.714v-2.731h.693v.4a1.267,1.267,0,0,1,.258-.3.917.917,0,0,1,.56-.165,1.051,1.051,0,0,1,.693.223" transform="translate(-371.804 -101.539)" fill="#53504e"/>
    <path id="패스_60" data-name="패스 60" d="M483.559,123.843a.885.885,0,0,1,.316.3V122.84h.723v3.7H483.9v-.379a.88.88,0,0,1-.837.466,1.019,1.019,0,0,1-.805-.388,1.481,1.481,0,0,1-.327-1,1.726,1.726,0,0,1,.32-1.1,1.055,1.055,0,0,1,.863-.4.886.886,0,0,1,.442.108m.177,1.952a1,1,0,0,0,.158-.585.894.894,0,0,0-.255-.719.542.542,0,0,0-.362-.129.5.5,0,0,0-.459.238,1.268,1.268,0,0,0,0,1.2.511.511,0,0,0,.453.225.534.534,0,0,0,.462-.225" transform="translate(-384.508 -98.007)" fill="#53504e"/>
    <path id="패스_61" data-name="패스 61" d="M499.968,128.4a1.041,1.041,0,0,0,.285-.062.21.21,0,0,0,.154-.2.244.244,0,0,0-.117-.233.737.737,0,0,0-.35-.065.458.458,0,0,0-.363.126.536.536,0,0,0-.1.251h-.69a1.076,1.076,0,0,1,.2-.591,1.181,1.181,0,0,1,.978-.359,1.727,1.727,0,0,1,.8.179.684.684,0,0,1,.352.671v1.257c0,.087,0,.192,0,.316a.413.413,0,0,0,.043.191.28.28,0,0,0,.109.083v.1h-.779a.925.925,0,0,1-.048-.156,1.094,1.094,0,0,1-.02-.163,1.544,1.544,0,0,1-.345.273,1.037,1.037,0,0,1-.522.133.915.915,0,0,1-.621-.212.76.76,0,0,1-.241-.6.781.781,0,0,1,.392-.731,1.71,1.71,0,0,1,.631-.174Zm.436.336a.939.939,0,0,1-.138.069,1.1,1.1,0,0,1-.194.047l-.162.03a1.135,1.135,0,0,0-.328.1.371.371,0,0,0-.067.569.4.4,0,0,0,.251.081.732.732,0,0,0,.431-.135.568.568,0,0,0,.206-.494Z" transform="translate(-397.883 -101.54)" fill="#53504e"/>
    <path id="패스_62" data-name="패스 62" d="M513.643,125.208V124.7h.381v-.763h.709v.763h.445v.509h-.445v1.447a.335.335,0,0,0,.043.21.483.483,0,0,0,.261.04h.07l.071,0v.535l-.337.012a.92.92,0,0,1-.7-.176.52.52,0,0,1-.12-.38v-1.686Z" transform="translate(-409.808 -98.882)" fill="#53504e"/>
    <path id="패스_63" data-name="패스 63" d="M525.559,123.367h-.725v-.66h.725Zm-.725.328h.725v2.736h-.725Z" transform="translate(-418.737 -97.901)" fill="#53504e"/>
    <path id="패스_64" data-name="패스 64" d="M534.746,129.643a1.506,1.506,0,0,1-2.106,0,1.695,1.695,0,0,1,0-2.055,1.491,1.491,0,0,1,2.106,0,1.7,1.7,0,0,1,0,2.055m-.574-.4a1.274,1.274,0,0,0,0-1.266.632.632,0,0,0-.965,0,1.282,1.282,0,0,0,0,1.266.632.632,0,0,0,.965,0" transform="translate(-424.688 -101.449)" fill="#53504e"/>
    <path id="패스_65" data-name="패스 65" d="M552.162,127.49a.894.894,0,0,1,.269.736v1.843H551.7V128.4a.779.779,0,0,0-.057-.33.4.4,0,0,0-.4-.211.494.494,0,0,0-.5.308,1.081,1.081,0,0,0-.071.419v1.48h-.717v-2.731h.694v.4a1.227,1.227,0,0,1,.258-.3.916.916,0,0,1,.56-.165,1.039,1.039,0,0,1,.69.223" transform="translate(-438.783 -101.539)" fill="#53504e"/>
    <rect id="사각형_60" data-name="사각형 60" width="1.607" height="0.643" transform="translate(49.277 26.774)" fill="#52504f"/>
    <path id="패스_66" data-name="패스 66" d="M35.037,78.458a.1.1,0,0,1-.084-.045l-1.37-2.041-.446.44v1.545a.1.1,0,0,1-.1.1h-.775a.1.1,0,0,1-.1-.1V73.83a.1.1,0,0,1,.1-.1h.775a.1.1,0,0,1,.1.1v1.729l1.755-1.8a.1.1,0,0,1,.072-.031h1.02a.1.1,0,0,1,.072.172l-1.769,1.782L36.1,78.3a.1.1,0,0,1-.083.159Z" transform="translate(-25.659 -58.824)" fill="#fff"/>
    <path id="패스_67" data-name="패스 67" d="M35.585,73.431l-1.829,1.841,1.862,2.686h-.98L33.2,75.816l-.563.555v1.588h-.775V73.431h.775v1.977l1.928-1.977Zm0-.2h-1.02a.2.2,0,0,0-.145.061l-1.581,1.621v-1.48a.2.2,0,0,0-.2-.2h-.775a.2.2,0,0,0-.2.2v4.527a.2.2,0,0,0,.2.2h.775a.2.2,0,0,0,.2-.2v-1.5l.329-.324,1.3,1.94a.2.2,0,0,0,.168.09h.98a.2.2,0,0,0,.166-.317L34.018,75.3l1.71-1.722a.2.2,0,0,0-.144-.345" transform="translate(-25.259 -58.425)" fill="#fff"/>
    <path id="패스_68" data-name="패스 68" d="M54.278,78.576A1.733,1.733,0,0,1,52.812,78a2.659,2.659,0,0,1-.431-1.628V73.83a.1.1,0,0,1,.1-.1h.808a.1.1,0,0,1,.1.1v2.786a1.517,1.517,0,0,0,.209.842.714.714,0,0,0,.651.3,1.083,1.083,0,0,0,.445-.08.666.666,0,0,0,.275-.221.948.948,0,0,0,.152-.355,2.28,2.28,0,0,0,.047-.483V73.83a.1.1,0,0,1,.1-.1h.808a.1.1,0,0,1,.1.1v2.538A2.691,2.691,0,0,1,55.757,78a1.738,1.738,0,0,1-1.479.581" transform="translate(-41.792 -58.824)" fill="#fff"/>
    <path id="패스_69" data-name="패스 69" d="M55.681,73.431v2.538a2.585,2.585,0,0,1-.4,1.567,2.062,2.062,0,0,1-2.783,0,2.552,2.552,0,0,1-.411-1.567V73.431h.808v2.786a1.607,1.607,0,0,0,.225.9.815.815,0,0,0,.735.342,1.177,1.177,0,0,0,.487-.089.772.772,0,0,0,.315-.254,1.041,1.041,0,0,0,.169-.393,2.361,2.361,0,0,0,.05-.5V73.431Zm0-.2h-.808a.2.2,0,0,0-.2.2v2.786a2.167,2.167,0,0,1-.045.461A.849.849,0,0,1,54.49,77a.564.564,0,0,1-.234.187.983.983,0,0,1-.4.071A.621.621,0,0,1,53.286,77a1.42,1.42,0,0,1-.192-.786V73.431a.2.2,0,0,0-.2-.2h-.808a.2.2,0,0,0-.2.2v2.538a2.754,2.754,0,0,0,.452,1.689,2.253,2.253,0,0,0,3.105,0,2.788,2.788,0,0,0,.444-1.688V73.431a.2.2,0,0,0-.2-.2" transform="translate(-41.393 -58.425)" fill="#fff"/>
    <path id="패스_70" data-name="패스 70" d="M75.129,78.146a2.011,2.011,0,0,1-1.4-.46,1.654,1.654,0,0,1-.5-1.3.1.1,0,0,1,.1-.1h.755a.1.1,0,0,1,.1.1,1.058,1.058,0,0,0,.242.705.968.968,0,0,0,.744.247,1.711,1.711,0,0,0,.354-.036.938.938,0,0,0,.3-.114A.565.565,0,0,0,76.011,77a.508.508,0,0,0,.071-.276.452.452,0,0,0-.181-.407,1.722,1.722,0,0,0-.575-.227l-.583-.13a2.592,2.592,0,0,1-1-.411,1.014,1.014,0,0,1-.368-.856,1.424,1.424,0,0,1,.464-1.1,1.83,1.83,0,0,1,1.274-.419,2.477,2.477,0,0,1,.725.1,1.714,1.714,0,0,1,.584.3,1.459,1.459,0,0,1,.38.512,1.623,1.623,0,0,1,.128.7.1.1,0,0,1-.1.1H76.07a.1.1,0,0,1-.1-.094.769.769,0,0,0-.88-.791.822.822,0,0,0-.562.175.531.531,0,0,0-.191.414.513.513,0,0,0,.037.212.3.3,0,0,0,.125.127,1.16,1.16,0,0,0,.273.117c.12.037.27.075.446.113l.6.136a1.873,1.873,0,0,1,.914.462,1.182,1.182,0,0,1,.324.865,1.466,1.466,0,0,1-.154.694,1.391,1.391,0,0,1-.418.48,1.788,1.788,0,0,1-.616.267,3.2,3.2,0,0,1-.742.082" transform="translate(-58.423 -58.382)" fill="#fff"/>
    <path id="패스_71" data-name="패스 71" d="M74.71,72.876a2.36,2.36,0,0,1,.7.1,1.6,1.6,0,0,1,.55.286,1.35,1.35,0,0,1,.351.475,1.512,1.512,0,0,1,.119.652h-.755a.979.979,0,0,0-.262-.646.969.969,0,0,0-.719-.239.914.914,0,0,0-.63.2.632.632,0,0,0-.225.49.609.609,0,0,0,.046.254.4.4,0,0,0,.166.171,1.238,1.238,0,0,0,.295.127q.182.056.454.115l.6.136a1.767,1.767,0,0,1,.865.434,1.08,1.08,0,0,1,.295.794,1.363,1.363,0,0,1-.143.646,1.283,1.283,0,0,1-.388.446,1.677,1.677,0,0,1-.58.251,3.083,3.083,0,0,1-.719.08,1.906,1.906,0,0,1-1.332-.434,1.552,1.552,0,0,1-.47-1.225h.755a1.15,1.15,0,0,0,.268.77,1.057,1.057,0,0,0,.818.28A1.806,1.806,0,0,0,75.144,77a1.037,1.037,0,0,0,.328-.127.667.667,0,0,0,.225-.218.605.605,0,0,0,.086-.331.551.551,0,0,0-.225-.49,1.812,1.812,0,0,0-.609-.242l-.583-.13a2.484,2.484,0,0,1-.964-.392.915.915,0,0,1-.328-.776,1.322,1.322,0,0,1,.431-1.024,1.727,1.727,0,0,1,1.206-.392m0-.2a1.926,1.926,0,0,0-1.342.445,1.521,1.521,0,0,0-.5,1.174,1.11,1.11,0,0,0,.407.937,2.652,2.652,0,0,0,1.043.429l.583.13a1.621,1.621,0,0,1,.54.212.344.344,0,0,1,.137.323.41.41,0,0,1-.055.222.463.463,0,0,1-.158.153.835.835,0,0,1-.266.1,1.618,1.618,0,0,1-.333.034.876.876,0,0,1-.669-.214.949.949,0,0,1-.216-.64.2.2,0,0,0-.2-.2h-.755a.2.2,0,0,0-.2.2,1.752,1.752,0,0,0,.537,1.376,2.109,2.109,0,0,0,1.468.486,3.305,3.305,0,0,0,.766-.085,1.883,1.883,0,0,0,.648-.282,1.494,1.494,0,0,0,.451-.517,1.568,1.568,0,0,0,.166-.741,1.28,1.28,0,0,0-.353-.936,1.971,1.971,0,0,0-.962-.488l-.605-.136c-.175-.038-.322-.075-.439-.111a1.054,1.054,0,0,1-.247-.1.212.212,0,0,1-.09-.085.423.423,0,0,1-.028-.169.43.43,0,0,1,.158-.339.726.726,0,0,1,.495-.149.785.785,0,0,1,.575.179.776.776,0,0,1,.2.518.2.2,0,0,0,.2.189h.755a.2.2,0,0,0,.2-.2,1.723,1.723,0,0,0-.137-.739,1.56,1.56,0,0,0-.4-.545,1.816,1.816,0,0,0-.623-.327,2.581,2.581,0,0,0-.755-.106" transform="translate(-58.024 -57.983)" fill="#fff"/>
    <path id="패스_72" data-name="패스 72" d="M95.622,78.458a.1.1,0,0,1-.1-.07l-.395-1.2h-1.4l-.427,1.2a.1.1,0,0,1-.1.067H92.4a.1.1,0,0,1-.1-.136l1.65-4.527a.1.1,0,0,1,.1-.066h.835a.1.1,0,0,1,.1.068l1.59,4.527a.1.1,0,0,1-.1.135ZM94.846,76.4l-.407-1.225L94,76.4Z" transform="translate(-73.642 -58.824)" fill="#fff"/>
    <path id="패스_73" data-name="패스 73" d="M94.487,73.431l1.59,4.527h-.855l-.417-1.269H93.261l-.451,1.269H92l1.65-4.527ZM93.454,76.1h1.133l-.543-1.635-.59,1.635m1.033-2.87h-.835a.2.2,0,0,0-.19.133l-1.65,4.527a.2.2,0,0,0,.19.271h.808A.2.2,0,0,0,93,78.026l.4-1.134h1.255l.372,1.13a.2.2,0,0,0,.192.139h.855a.2.2,0,0,0,.191-.269l-1.59-4.527a.2.2,0,0,0-.191-.135M93.742,75.9l.294-.815.271.815Z" transform="translate(-73.243 -58.425)" fill="#fff"/>
    <path id="패스_74" data-name="패스 74" d="M114.624,78.458a.1.1,0,0,1-.1-.1V73.83a.1.1,0,0,1,.1-.1h3.18a.1.1,0,0,1,.1.1v.649a.1.1,0,0,1-.1.1h-2.291v1.037h2a.1.1,0,0,1,.1.1v.632a.1.1,0,0,1-.1.1h-2v1.906a.1.1,0,0,1-.1.1Z" transform="translate(-91.372 -58.824)" fill="#fff"/>
    <path id="패스_75" data-name="패스 75" d="M117.406,73.431v.649h-2.392V75.32h2.1v.632h-2.1v2.007h-.788V73.431Zm0-.2h-3.18a.2.2,0,0,0-.2.2v4.527a.2.2,0,0,0,.2.2h.788a.2.2,0,0,0,.2-.2v-1.8h1.9a.2.2,0,0,0,.2-.2V75.32a.2.2,0,0,0-.2-.2h-1.9v-.835h2.19a.2.2,0,0,0,.2-.2v-.649a.2.2,0,0,0-.2-.2" transform="translate(-90.974 -58.425)" fill="#fff"/>
    <path id="패스_76" data-name="패스 76" d="M35.037,78.458a.1.1,0,0,1-.084-.045l-1.37-2.041-.446.44v1.545a.1.1,0,0,1-.1.1h-.775a.1.1,0,0,1-.1-.1V73.83a.1.1,0,0,1,.1-.1h.775a.1.1,0,0,1,.1.1v1.729l1.755-1.8a.1.1,0,0,1,.072-.031h1.02a.1.1,0,0,1,.072.172l-1.769,1.782L36.1,78.3a.1.1,0,0,1-.083.159Z" transform="translate(-25.659 -58.824)" fill="#c38b00"/>
    <path id="패스_77" data-name="패스 77" d="M35.585,73.431l-1.829,1.841,1.862,2.686h-.98L33.2,75.816l-.563.555v1.588h-.775V73.431h.775v1.977l1.928-1.977Zm0-.2h-1.02a.2.2,0,0,0-.145.061l-1.581,1.621v-1.48a.2.2,0,0,0-.2-.2h-.775a.2.2,0,0,0-.2.2v4.527a.2.2,0,0,0,.2.2h.775a.2.2,0,0,0,.2-.2v-1.5l.329-.324,1.3,1.94a.2.2,0,0,0,.168.09h.98a.2.2,0,0,0,.166-.317L34.018,75.3l1.71-1.722a.2.2,0,0,0-.144-.345" transform="translate(-25.259 -58.425)" fill="#fff"/>
    <path id="패스_78" data-name="패스 78" d="M54.278,78.576A1.733,1.733,0,0,1,52.812,78a2.659,2.659,0,0,1-.431-1.628V73.83a.1.1,0,0,1,.1-.1h.808a.1.1,0,0,1,.1.1v2.786a1.517,1.517,0,0,0,.209.842.714.714,0,0,0,.651.3,1.083,1.083,0,0,0,.445-.08.666.666,0,0,0,.275-.221.948.948,0,0,0,.152-.355,2.28,2.28,0,0,0,.047-.483V73.83a.1.1,0,0,1,.1-.1h.808a.1.1,0,0,1,.1.1v2.538A2.691,2.691,0,0,1,55.757,78a1.738,1.738,0,0,1-1.479.581" transform="translate(-41.792 -58.824)" fill="#c38b00"/>
    <path id="패스_79" data-name="패스 79" d="M55.681,73.431v2.538a2.585,2.585,0,0,1-.4,1.567,2.062,2.062,0,0,1-2.783,0,2.552,2.552,0,0,1-.411-1.567V73.431h.808v2.786a1.607,1.607,0,0,0,.225.9.815.815,0,0,0,.735.342,1.177,1.177,0,0,0,.487-.089.772.772,0,0,0,.315-.254,1.041,1.041,0,0,0,.169-.393,2.361,2.361,0,0,0,.05-.5V73.431Zm0-.2h-.808a.2.2,0,0,0-.2.2v2.786a2.167,2.167,0,0,1-.045.461A.849.849,0,0,1,54.49,77a.564.564,0,0,1-.234.187.983.983,0,0,1-.4.071A.621.621,0,0,1,53.286,77a1.42,1.42,0,0,1-.192-.786V73.431a.2.2,0,0,0-.2-.2h-.808a.2.2,0,0,0-.2.2v2.538a2.754,2.754,0,0,0,.452,1.689,2.253,2.253,0,0,0,3.105,0,2.788,2.788,0,0,0,.444-1.688V73.431a.2.2,0,0,0-.2-.2" transform="translate(-41.393 -58.425)" fill="#fff"/>
    <path id="패스_80" data-name="패스 80" d="M75.129,78.146a2.011,2.011,0,0,1-1.4-.46,1.654,1.654,0,0,1-.5-1.3.1.1,0,0,1,.1-.1h.755a.1.1,0,0,1,.1.1,1.058,1.058,0,0,0,.242.705.968.968,0,0,0,.744.247,1.711,1.711,0,0,0,.354-.036.938.938,0,0,0,.3-.114A.565.565,0,0,0,76.011,77a.508.508,0,0,0,.071-.276.452.452,0,0,0-.181-.407,1.722,1.722,0,0,0-.575-.227l-.583-.13a2.592,2.592,0,0,1-1-.411,1.014,1.014,0,0,1-.368-.856,1.424,1.424,0,0,1,.464-1.1,1.83,1.83,0,0,1,1.274-.419,2.477,2.477,0,0,1,.725.1,1.714,1.714,0,0,1,.584.3,1.459,1.459,0,0,1,.38.512,1.623,1.623,0,0,1,.128.7.1.1,0,0,1-.1.1H76.07a.1.1,0,0,1-.1-.094.769.769,0,0,0-.88-.791.822.822,0,0,0-.562.175.531.531,0,0,0-.191.414.513.513,0,0,0,.037.212.3.3,0,0,0,.125.127,1.16,1.16,0,0,0,.273.117c.12.037.27.075.446.113l.6.136a1.873,1.873,0,0,1,.914.462,1.182,1.182,0,0,1,.324.865,1.466,1.466,0,0,1-.154.694,1.391,1.391,0,0,1-.418.48,1.788,1.788,0,0,1-.616.267,3.2,3.2,0,0,1-.742.082" transform="translate(-58.423 -58.382)" fill="#c38b00"/>
    <path id="패스_81" data-name="패스 81" d="M74.71,72.876a2.36,2.36,0,0,1,.7.1,1.6,1.6,0,0,1,.55.286,1.35,1.35,0,0,1,.351.475,1.512,1.512,0,0,1,.119.652h-.755a.979.979,0,0,0-.262-.646.969.969,0,0,0-.719-.239.914.914,0,0,0-.63.2.632.632,0,0,0-.225.49.609.609,0,0,0,.046.254.4.4,0,0,0,.166.171,1.238,1.238,0,0,0,.295.127q.182.056.454.115l.6.136a1.767,1.767,0,0,1,.865.434,1.08,1.08,0,0,1,.295.794,1.363,1.363,0,0,1-.143.646,1.283,1.283,0,0,1-.388.446,1.677,1.677,0,0,1-.58.251,3.083,3.083,0,0,1-.719.08,1.906,1.906,0,0,1-1.332-.434,1.552,1.552,0,0,1-.47-1.225h.755a1.15,1.15,0,0,0,.268.77,1.057,1.057,0,0,0,.818.28A1.806,1.806,0,0,0,75.144,77a1.037,1.037,0,0,0,.328-.127.667.667,0,0,0,.225-.218.605.605,0,0,0,.086-.331.551.551,0,0,0-.225-.49,1.812,1.812,0,0,0-.609-.242l-.583-.13a2.484,2.484,0,0,1-.964-.392.915.915,0,0,1-.328-.776,1.322,1.322,0,0,1,.431-1.024,1.727,1.727,0,0,1,1.206-.392m0-.2a1.926,1.926,0,0,0-1.342.445,1.521,1.521,0,0,0-.5,1.174,1.11,1.11,0,0,0,.407.937,2.652,2.652,0,0,0,1.043.429l.583.13a1.621,1.621,0,0,1,.54.212.344.344,0,0,1,.137.323.41.41,0,0,1-.055.222.463.463,0,0,1-.158.153.835.835,0,0,1-.266.1,1.618,1.618,0,0,1-.333.034.876.876,0,0,1-.669-.214.949.949,0,0,1-.216-.64.2.2,0,0,0-.2-.2h-.755a.2.2,0,0,0-.2.2,1.752,1.752,0,0,0,.537,1.376,2.109,2.109,0,0,0,1.468.486,3.305,3.305,0,0,0,.766-.085,1.883,1.883,0,0,0,.648-.282,1.494,1.494,0,0,0,.451-.517,1.568,1.568,0,0,0,.166-.741,1.28,1.28,0,0,0-.353-.936,1.971,1.971,0,0,0-.962-.488l-.605-.136c-.175-.038-.322-.075-.439-.111a1.054,1.054,0,0,1-.247-.1.212.212,0,0,1-.09-.085.423.423,0,0,1-.028-.169.43.43,0,0,1,.158-.339.726.726,0,0,1,.495-.149.785.785,0,0,1,.575.179.776.776,0,0,1,.2.518.2.2,0,0,0,.2.189h.755a.2.2,0,0,0,.2-.2,1.723,1.723,0,0,0-.137-.739,1.56,1.56,0,0,0-.4-.545,1.816,1.816,0,0,0-.623-.327,2.581,2.581,0,0,0-.755-.106" transform="translate(-58.024 -57.983)" fill="#fff"/>
    <path id="패스_82" data-name="패스 82" d="M95.622,78.458a.1.1,0,0,1-.1-.07l-.395-1.2h-1.4l-.427,1.2a.1.1,0,0,1-.1.067H92.4a.1.1,0,0,1-.1-.136l1.65-4.527a.1.1,0,0,1,.1-.066h.835a.1.1,0,0,1,.1.068l1.59,4.527a.1.1,0,0,1-.1.135ZM94.846,76.4l-.407-1.225L94,76.4Z" transform="translate(-73.642 -58.824)" fill="#c38b00"/>
    <path id="패스_83" data-name="패스 83" d="M94.487,73.431l1.59,4.527h-.855l-.417-1.269H93.261l-.451,1.269H92l1.65-4.527ZM93.454,76.1h1.133l-.543-1.635-.59,1.635m1.033-2.87h-.835a.2.2,0,0,0-.19.133l-1.65,4.527a.2.2,0,0,0,.19.271h.808A.2.2,0,0,0,93,78.026l.4-1.134h1.255l.372,1.13a.2.2,0,0,0,.192.139h.855a.2.2,0,0,0,.191-.269l-1.59-4.527a.2.2,0,0,0-.191-.135M93.742,75.9l.294-.815.271.815Z" transform="translate(-73.243 -58.425)" fill="#fff"/>
    <path id="패스_84" data-name="패스 84" d="M114.624,78.458a.1.1,0,0,1-.1-.1V73.83a.1.1,0,0,1,.1-.1h3.18a.1.1,0,0,1,.1.1v.649a.1.1,0,0,1-.1.1h-2.291v1.037h2a.1.1,0,0,1,.1.1v.632a.1.1,0,0,1-.1.1h-2v1.906a.1.1,0,0,1-.1.1Z" transform="translate(-91.372 -58.824)" fill="#c38b00"/>
    <path id="패스_85" data-name="패스 85" d="M117.406,73.431v.649h-2.392V75.32h2.1v.632h-2.1v2.007h-.788V73.431Zm0-.2h-3.18a.2.2,0,0,0-.2.2v4.527a.2.2,0,0,0,.2.2h.788a.2.2,0,0,0,.2-.2v-1.8h1.9a.2.2,0,0,0,.2-.2V75.32a.2.2,0,0,0-.2-.2h-1.9v-.835h2.19a.2.2,0,0,0,.2-.2v-.649a.2.2,0,0,0-.2-.2" transform="translate(-90.974 -58.425)" fill="#fff"/>
  </g>
</svg>
