<svg xmlns="http://www.w3.org/2000/svg" xmlns:xlink="http://www.w3.org/1999/xlink" width="238.674" height="130.718" viewBox="0 0 238.674 130.718">
  <defs>
    <filter id="사각형_197" x="0" y="38.438" width="200" height="59" filterUnits="userSpaceOnUse">
      <feOffset dy="3" input="SourceAlpha"/>
      <feGaussianBlur stdDeviation="3" result="blur"/>
      <feFlood flood-color="#70a0eb"/>
      <feComposite operator="in" in2="blur"/>
      <feComposite in="SourceGraphic"/>
    </filter>
    <clipPath id="clip-path">
      <rect id="사각형_196" data-name="사각형 196" width="83.701" height="110.718" transform="translate(0 12.922)" fill="none"/>
    </clipPath>
    <clipPath id="clip-path-2">
      <rect id="사각형_198" data-name="사각형 198" width="81" height="81" transform="translate(0.5 0.5)" fill="#3faced"/>
    </clipPath>
  </defs>
  <g id="그룹_434" data-name="그룹 434" transform="translate(-947 -351.282)">
    <g transform="matrix(1, 0, 0, 1, 947, 351.28)" filter="url(#사각형_197)">
      <g id="사각형_197-2" data-name="사각형 197" transform="translate(9 44.44)" fill="#fff" stroke="#3faced" stroke-width="1">
        <rect width="182" height="41" rx="20.5" stroke="none"/>
        <rect x="0.5" y="0.5" width="181" height="40" rx="20" fill="none"/>
      </g>
    </g>
    <g id="그룹_404" data-name="그룹 404" transform="translate(1101.973 338.36)">
      <g id="그룹_403" data-name="그룹 403" clip-path="url(#clip-path)">
        <path id="패스_105" data-name="패스 105" d="M2.676,207.843h78.35a2.564,2.564,0,0,1,2.676,2.436v98.839a2.564,2.564,0,0,1-2.676,2.436H2.676A2.564,2.564,0,0,1,0,309.118V210.279a2.564,2.564,0,0,1,2.676-2.436" transform="translate(0 -157.215)" fill="#255eb8"/>
        <path id="패스_106" data-name="패스 106" d="M109.936,60.25a2.436,2.436,0,0,1-2.542-2.314V23.019c0-10.141-9.063-18.391-20.2-18.391s-20.2,8.25-20.2,18.391V57.936a2.553,2.553,0,0,1-5.084,0V23.019C61.906,10.326,73.249,0,87.192,0s25.286,10.326,25.286,23.019V57.936a2.436,2.436,0,0,1-2.542,2.314" transform="translate(-45.341 12.922)" fill="#3faced"/>
        <path id="패스_107" data-name="패스 107" d="M231.906,215.151a2.553,2.553,0,0,0,5.084,0v-7.308h-5.084Z" transform="translate(-169.853 -157.215)" fill="#83caff"/>
        <path id="패스_108" data-name="패스 108" d="M64.448,217.465a2.436,2.436,0,0,0,2.542-2.314v-7.308H61.906v7.308a2.436,2.436,0,0,0,2.542,2.314" transform="translate(-45.341 -157.215)" fill="#83caff"/>
        <path id="패스_109" data-name="패스 109" d="M141.849,316.678c0-4.5-4.278-8.088-9.333-7.58a7.967,7.967,0,0,0-7.347,6.529,7.4,7.4,0,0,0,3.758,7.459,2.411,2.411,0,0,1,1.246,2.057v5.549a3.307,3.307,0,0,0,6.595.1v-5.6a2.421,2.421,0,0,1,1.222-2.087,7.486,7.486,0,0,0,3.859-6.423" transform="translate(-91.62 -233.769)" fill="#fff"/>
      </g>
    </g>
    <text id="_" data-name="* * * * *" transform="translate(976.672 433.834)" fill="#3faced" font-size="35" font-family="Pretendard-Medium, Pretendard" font-weight="500" letter-spacing="-0.03em"><tspan x="0" y="0">* * * * *</tspan></text>
    <g id="그룹_406" data-name="그룹 406" transform="translate(1060.5 400.5)" opacity="0.73">
      <g id="그룹_405" data-name="그룹 405" clip-path="url(#clip-path-2)">
        <path id="패스_110" data-name="패스 110" d="M29.79,0A29.79,29.79,0,1,1,0,29.79,29.79,29.79,0,0,1,29.79,0" fill="#619aff"/>
        <path id="패스_111" data-name="패스 111" d="M81.194,61.065A20.129,20.129,0,1,1,61.065,81.194,20.129,20.129,0,0,1,81.194,61.065" transform="translate(-51.404 -51.404)" fill="#fff"/>
        <path id="패스_112" data-name="패스 112" d="M329.089,330.593a1.5,1.5,0,0,1-1.063-.44L296.94,299.066a1.5,1.5,0,0,1,2.126-2.126l31.087,31.087a1.5,1.5,0,0,1-1.063,2.566" transform="translate(-249.592 -249.593)" fill="#9ff6ff"/>
        <path id="패스_113" data-name="패스 113" d="M301.482,299.358l-2.417-2.417a1.5,1.5,0,1,0-2.126,2.125l2.417,2.417a29.966,29.966,0,0,0,2.126-2.126" transform="translate(-249.592 -249.594)" fill="#83caff"/>
      </g>
    </g>
  </g>
</svg>
